<svg width="243" height="72.002" viewBox="0 0 243 72.002" xmlns="http://www.w3.org/2000/svg">
  <g id="svgGroup" stroke-linecap="round" fill-rule="evenodd" font-size="9pt" stroke="#000" stroke-width="0" fill="#00cc00" style="stroke:#000;stroke-width:0;fill:#00cc00">
    <path d="M 47.3 1.001 L 65.9 1.001 Q 67 1.001 67.8 1.801 Q 68.6 2.601 68.6 3.701 L 68.6 68.301 Q 68.6 69.401 67.8 70.201 Q 67 71.001 65.9 71.001 L 49.8 71.001 Q 47.4 71.001 45.8 68.901 L 24 41.101 L 24 68.301 Q 24 69.401 23.2 70.201 Q 22.4 71.001 21.3 71.001 L 2.7 71.001 Q 1.6 71.001 0.8 70.201 Q 0 69.401 0 68.301 L 0 3.701 Q 0 2.601 0.8 1.801 Q 1.6 1.001 2.7 1.001 L 18.9 1.001 Q 21.3 1.001 22.8 3.001 L 44.6 33.101 L 44.6 3.701 Q 44.6 2.601 45.4 1.801 Q 46.2 1.001 47.3 1.001 Z" id="0"/>
    <path d="M 156.8 29.901 L 156.8 42.101 Q 156.8 52.401 151.8 59.301 Q 146.8 66.201 138.7 69.101 Q 130.6 72.001 119.6 72.001 Q 108.6 72.001 100.5 69.101 Q 92.4 66.201 87.4 59.301 Q 82.4 52.401 82.4 41.901 L 82.4 30.101 Q 82.4 15.001 92.75 7.501 Q 103.1 0.001 119.6 0.001 Q 136.1 0.001 146.45 7.501 Q 156.8 15.001 156.8 29.901 Z M 109.4 28.001 L 109.4 44.001 Q 109.4 48.101 112.15 50.301 Q 114.9 52.501 119.6 52.501 Q 124.3 52.501 127.05 50.251 Q 129.8 48.001 129.8 43.901 L 129.8 28.101 Q 129.8 24.001 127.05 21.751 Q 124.3 19.501 119.6 19.501 Q 114.9 19.501 112.15 21.701 Q 109.4 23.901 109.4 28.001 Z" id="1"/>
    <path d="M 222 1.001 L 240.3 1.001 Q 241.4 1.001 242.2 1.801 Q 243 2.601 243 3.701 L 243 68.301 Q 243 69.401 242.2 70.201 Q 241.4 71.001 240.3 71.001 L 222.2 71.001 Q 221.1 71.001 220.3 70.201 Q 219.5 69.401 219.5 68.301 L 219.5 37.301 L 212.2 51.701 Q 211.6 52.901 210.4 53.551 Q 209.2 54.201 208 54.201 L 201.2 54.201 Q 199.5 54.201 198.4 53.301 Q 197.3 52.401 197 51.701 L 189.7 37.301 L 189.7 68.301 Q 189.7 69.401 188.9 70.201 Q 188.1 71.001 187 71.001 L 168.9 71.001 Q 167.8 71.001 167 70.201 Q 166.2 69.401 166.2 68.301 L 166.2 3.701 Q 166.2 2.601 167 1.801 Q 167.8 1.001 168.9 1.001 L 187.2 1.001 Q 190 1.001 191.5 3.701 L 204.6 27.701 L 217.7 3.701 Q 219.2 1.001 222 1.001 Z" id="2"/>
  </g>
</svg>
