<svg width="144" height="144" viewBox="0 0 144 144" xmlns="http://www.w3.org/2000/svg">
  <path d="M47.37 6h16.268q.962 0 1.662.686t.7 1.628v55.365q0 .944-.7 1.629a2.3 2.3 0 0 1-1.662.685H49.557q-2.099 0-3.499-1.8L26.991 40.367v23.312q0 .944-.7 1.629a2.3 2.3 0 0 1-1.661.685H8.361a2.3 2.3 0 0 1-1.662-.685Q6 64.623 6 63.679V8.314q0-.942.699-1.628A2.3 2.3 0 0 1 8.361 6h14.17q2.098 0 3.411 1.714l19.066 25.797V8.314q0-.942.701-1.628A2.3 2.3 0 0 1 47.37 6ZM66 102.913v10.167q0 8.582-4.032 14.331-4.032 5.75-10.565 8.166T36 137.993t-15.403-2.416-10.565-8.166Q6.001 121.663 6 112.913v-9.832q0-12.582 8.347-18.831Q22.694 78 36 78t21.653 6.25T66 102.913Zm-38.226-1.583v13.333q0 3.416 2.218 5.249T36 121.745t6.008-1.875q2.218-1.873 2.218-5.29v-13.166q0-3.416-2.218-5.291T36 94.248t-6.008 1.833-2.218 5.249ZM121.594 78h14.297q.86 0 1.483.686.626.685.626 1.628v55.365q0 .943-.626 1.629-.623.684-1.483.685H121.75q-.859 0-1.484-.685a2.34 2.34 0 0 1-.626-1.629v-26.568l-5.702 12.341a3.47 3.47 0 0 1-1.407 1.586q-.937.557-1.875.557h-5.312q-1.327 0-2.188-.772-.86-.771-1.094-1.371l-5.702-12.341v26.568q0 .943-.626 1.629-.624.684-1.484.685H80.11q-.86 0-1.484-.685a2.33 2.33 0 0 1-.626-1.629V80.314q0-.943.626-1.628Q79.25 78 80.11 78h14.296q2.187 0 3.36 2.314L108 100.883l10.234-20.569Q119.407 78 121.594 78Z" fill-rule="evenodd" font-size="12" style="fill:#00ca00"/>
</svg>

