<?xml version="1.0" encoding="utf-8"?>
<svg width="144px" height="144px" viewBox="0 0 144 144" xmlns="http://www.w3.org/2000/svg">
  <path d="M 47.37 6 L 63.638 6 C 64.279 6 64.834 6.229 65.3 6.686 C 65.766 7.143 66 7.686 66 8.314 L 66 63.679 C 66 64.308 65.766 64.851 65.3 65.308 C 64.834 65.765 64.279 65.993 63.638 65.993 L 49.557 65.993 C 48.157 65.993 46.992 65.393 46.058 64.193 L 26.991 40.367 L 26.991 63.679 C 26.991 64.308 26.758 64.851 26.291 65.308 C 25.825 65.765 25.271 65.993 24.63 65.993 L 8.361 65.993 C 7.72 65.993 7.166 65.765 6.699 65.308 C 6.233 64.851 6 64.308 6 63.679 L 6 8.314 C 6 7.686 6.233 7.143 6.699 6.686 C 7.166 6.229 7.72 6 8.361 6 L 22.531 6 C 23.93 6 25.067 6.572 25.942 7.714 L 45.008 33.511 L 45.008 8.314 C 45.008 7.686 45.242 7.143 45.709 6.686 C 46.174 6.229 46.728 6 47.37 6 Z" id="0" stroke-linecap="round" fill-rule="evenodd" font-size="9pt" stroke="#000" stroke-width="0" style="stroke: rgb(0, 0, 0); stroke-width: 0px; fill: rgb(0, 202, 0);"/>
  <path d="M 66 102.913 L 66 113.08 C 66 118.801 64.656 123.579 61.968 127.411 C 59.28 131.244 55.758 133.966 51.403 135.577 C 47.048 137.188 41.914 137.993 36 137.993 C 30.086 137.993 24.952 137.188 20.597 135.577 C 16.242 133.966 12.721 131.244 10.032 127.411 C 7.345 123.579 6 118.746 6 112.913 L 6 103.081 C 6 94.693 8.782 88.416 14.347 84.25 C 19.911 80.083 27.13 78 36 78 C 44.87 78 52.089 80.083 57.653 84.25 C 63.218 88.416 66 94.637 66 102.913 Z M 27.774 101.33 L 27.774 114.663 C 27.774 116.941 28.514 118.69 29.992 119.912 C 31.471 121.134 33.473 121.745 36 121.745 C 38.527 121.745 40.529 121.12 42.008 119.87 C 43.487 118.621 44.226 116.858 44.226 114.58 L 44.226 101.414 C 44.226 99.136 43.487 97.373 42.008 96.123 C 40.529 94.873 38.527 94.248 36 94.248 C 33.473 94.248 31.471 94.86 29.992 96.081 C 28.514 97.303 27.774 99.053 27.774 101.33 Z" id="1" stroke-linecap="round" fill-rule="evenodd" font-size="9pt" stroke="#000" stroke-width="0" style="stroke: rgb(0, 0, 0); stroke-width: 0px; fill: rgb(0, 202, 0);"/>
  <path d="M 121.594 78 L 135.891 78 C 136.464 78 136.959 78.229 137.374 78.686 C 137.792 79.142 138 79.686 138 80.314 L 138 135.679 C 138 136.307 137.792 136.851 137.374 137.308 C 136.959 137.764 136.464 137.993 135.891 137.993 L 121.75 137.993 C 121.177 137.993 120.683 137.764 120.266 137.308 C 119.849 136.851 119.64 136.307 119.64 135.679 L 119.64 109.111 L 113.938 121.452 C 113.625 122.138 113.156 122.667 112.531 123.038 C 111.906 123.409 111.282 123.595 110.656 123.595 L 105.344 123.595 C 104.459 123.595 103.73 123.338 103.156 122.823 C 102.583 122.309 102.218 121.852 102.062 121.452 L 96.36 109.111 L 96.36 135.679 C 96.36 136.307 96.151 136.851 95.734 137.308 C 95.317 137.764 94.824 137.993 94.25 137.993 L 80.11 137.993 C 79.537 137.993 79.042 137.764 78.626 137.308 C 78.208 136.851 78 136.307 78 135.679 L 78 80.314 C 78 79.686 78.208 79.142 78.626 78.686 C 79.042 78.229 79.537 78 80.11 78 L 94.406 78 C 95.864 78 96.984 78.771 97.766 80.314 L 108 100.883 L 118.234 80.314 C 119.016 78.771 120.136 78 121.594 78 Z" id="2" stroke-linecap="round" fill-rule="evenodd" font-size="9pt" stroke="#000" stroke-width="0" style="stroke: rgb(0, 0, 0); stroke-width: 0px; fill: rgb(0, 202, 0);"/>
</svg>